# xmcd
#
# Track frame offsets: 
#        224
#        13548
#        28771
#        46580
#        58945
#
# Disc length: 930 seconds
#
# Revision: 0
# Processed by: cddbd v1.5.2PL0 Copyright (c) Steve Scherf et al.
# Submitted via: ExactAudioCopy v0.99pb5
#
DISCID=3603a005
DTITLE=Svenörjans - Transarnas far
DYEAR=2001
DGENRE=Country
TTITLE0=Transarnas Far
TTITLE1=Om du inte vill se mig naken
TTITLE2=Doktor Dunschback
TTITLE3=Massösen Britt
TTITLE4=SvenÖrjans sång
EXTD=
EXTT0=
EXTT1=
EXTT2=
EXTT3=
EXTT4=
PLAYORDER=
